<svg xmlns="http://www.w3.org/2000/svg" xmlns:xlink="http://www.w3.org/1999/xlink" viewBox="0 0 500 500"><defs><style>.cls-1{fill:#6ee089;}.cls-2{clip-path:url(#clip-path);}</style><clipPath id="clip-path"><path class="cls-1" d="M451.49,315c16.27-42.89-94-80.43-80.61-120.65s97.69,83.57,97.69,83.57h0C513.1,165.39,471.21,107.7,446,82.12c-26.81-27.14-88.48-65.6-126-47.5S285.08,82.12,269,82.12s26.82-40.71-18.76-54.29S175.15,12,175.15,12C132.26,12,57.18,21.05,25,120.58c-10.18,31.5-14.44,66-13.23,100,.35-.63,75.07-133.47,150-98.69,75.05,34.84-141.11,38.16-139,170.44C35.54,338.3,59,378.59,92,403.34c72.39,54.29,151,89.37,160.87,83.22,8-5-2.68-13.82,10.72-16.08,6.81-1.15,42-12.63,82.7-40.25h0c31.75-42.92-50.52-147.43-26.39-158.16S381.46,403,381.46,403a318.27,318.27,0,0,0,70-88ZM330.93,157.84c-9.35-3-14.4-18.78-20.07-19s-17.42,9.72-20.69-3.42c-2.5-10.06,19.61-17.44,38.2-8.91S340.27,160.81,330.93,157.84Z"/></clipPath></defs><title>logo-monochromo</title><g id="logo"><path class="cls-1" d="M451.49,315c16.27-42.89-94-80.43-80.61-120.65s97.69,83.57,97.69,83.57h0C513.1,165.39,471.21,107.7,446,82.12c-26.81-27.14-88.48-65.6-126-47.5S285.08,82.12,269,82.12s26.82-40.71-18.76-54.29S175.15,12,175.15,12C132.26,12,57.18,21.05,25,120.58c-10.18,31.5-14.44,66-13.23,100,.35-.63,75.07-133.47,150-98.69,75.05,34.84-141.11,38.16-139,170.44C35.54,338.3,59,378.59,92,403.34c72.39,54.29,151,89.37,160.87,83.22,8-5-2.68-13.82,10.72-16.08,6.81-1.15,42-12.63,82.7-40.25h0c31.75-42.92-50.52-147.43-26.39-158.16S381.46,403,381.46,403a318.27,318.27,0,0,0,70-88ZM330.93,157.84c-9.35-3-14.4-18.78-20.07-19s-17.42,9.72-20.69-3.42c-2.5-10.06,19.61-17.44,38.2-8.91S340.27,160.81,330.93,157.84Z"/><path class="cls-1" d="M451.49,315c16.27-42.89-94-80.43-80.61-120.65s97.69,83.57,97.69,83.57h0C513.1,165.39,471.21,107.7,446,82.12c-26.81-27.14-88.48-65.6-126-47.5S285.08,82.12,269,82.12s26.82-40.71-18.76-54.29S175.15,12,175.15,12C132.26,12,57.18,21.05,25,120.58c-10.18,31.5-14.44,66-13.23,100,.35-.63,75.07-133.47,150-98.69,75.05,34.84-141.11,38.16-139,170.44C35.54,338.3,59,378.59,92,403.34c72.39,54.29,151,89.37,160.87,83.22,8-5-2.68-13.82,10.72-16.08,6.81-1.15,42-12.63,82.7-40.25h0c31.75-42.92-50.52-147.43-26.39-158.16S381.46,403,381.46,403a318.27,318.27,0,0,0,70-88ZM330.93,157.84c-9.35-3-14.4-18.78-20.07-19s-17.42,9.72-20.69-3.42c-2.5-10.06,19.61-17.44,38.2-8.91S340.27,160.81,330.93,157.84Z"/><g class="cls-2"><path class="cls-1" d="M274.36,518.74C258.59,496.47,172.5,361.08,202,221.13c13.8-65.59,45.42-112.67,67-139.42L295.81,4,84-1.41-55.42,111.2-28.61,323,124.21,524.1Z"/></g></g></svg>